<svg width="1200" height="630" viewBox="0 0 1200 630" xmlns="http://www.w3.org/2000/svg" role="img" aria-labelledby="title desc">
  <title id="title">UK business electricity network charges overview</title>
  <desc id="desc">Stacked bar illustration breaking down business electricity network charges for UK organisations.</desc>
  <defs>
    <linearGradient id="bg2" x1="0" y1="0" x2="1" y2="1">
      <stop offset="0%" stop-color="#050816" />
      <stop offset="100%" stop-color="#10142a" />
    </linearGradient>
  </defs>
  <rect width="1200" height="630" fill="url(#bg2)" />
  <g transform="translate(120,80)">
    <rect x="0" y="40" width="960" height="390" rx="18" fill="#0b1020" stroke="#1f2937" />
    <g transform="translate(80,80)">
      <rect x="0" y="200" width="120" height="140" fill="#0D76FA" />
      <rect x="0" y="160" width="120" height="40" fill="#22c55e" />
      <rect x="0" y="120" width="120" height="40" fill="#f97316" />
      <rect x="220" y="180" width="120" height="160" fill="#0D76FA" />
      <rect x="220" y="140" width="120" height="40" fill="#22c55e" />
      <rect x="220" y="100" width="120" height="40" fill="#f97316" />
      <rect x="440" y="160" width="120" height="180" fill="#0D76FA" />
      <rect x="440" y="120" width="120" height="40" fill="#22c55e" />
      <rect x="440" y="80" width="120" height="40" fill="#f97316" />
      <rect x="660" y="140" width="120" height="200" fill="#0D76FA" />
      <rect x="660" y="100" width="120" height="40" fill="#22c55e" />
      <rect x="660" y="60" width="120" height="40" fill="#f97316" />
    </g>
    <g transform="translate(80,320)" fill="#e5e7eb" font-size="14" font-family="system-ui, -apple-system, BlinkMacSystemFont, 'Segoe UI', sans-serif">
      <text x="20" y="150">SME</text>
      <text x="240" y="150">Retail</text>
      <text x="460" y="150">Manufacturing</text>
      <text x="680" y="150">Multi-site</text>
    </g>
    <g transform="translate(720,60)" font-size="13" font-family="system-ui, -apple-system, BlinkMacSystemFont, 'Segoe UI', sans-serif">
      <rect x="0" y="0" width="14" height="14" fill="#0D76FA" />
      <text x="22" y="12" fill="#e5e7eb">Network (DUoS/TNUoS)</text>
      <rect x="0" y="24" width="14" height="14" fill="#22c55e" />
      <text x="22" y="36" fill="#e5e7eb">Balancing &amp; policy</text>
      <rect x="0" y="48" width="14" height="14" fill="#f97316" />
      <text x="22" y="60" fill="#e5e7eb">Other charges</text>
    </g>
    <text x="0" y="20" fill="#e5e7eb" font-size="22" font-family="system-ui, -apple-system, BlinkMacSystemFont, 'Segoe UI', sans-serif">
      UK business electricity network charges overview
    </text>
  </g>
</svg>
